<svg width="20" height="20" viewBox="0 0 20 20" fill="none" xmlns="http://www.w3.org/2000/svg">
<mask id="mask0_18_152" style="mask-type:alpha" maskUnits="userSpaceOnUse" x="0" y="0" width="20" height="20">
<rect width="20" height="20" fill="#D9D9D9"/>
</mask>
<g mask="url(#mask0_18_152)">
<path d="M8 17H4.5C4.09722 17 3.74653 16.8507 3.44792 16.5521C3.14931 16.2535 3 15.9028 3 15.5V10C3 9.02778 3.18542 8.11713 3.55625 7.26806C3.92708 6.41898 4.42804 5.68009 5.0591 5.0514C5.69017 4.42269 6.43184 3.92361 7.2841 3.55417C8.13637 3.18472 9.04514 3 10.0104 3C10.9757 3 11.8829 3.18472 12.7319 3.55417C13.581 3.92361 14.3199 4.42269 14.9486 5.0514C15.5773 5.68009 16.0764 6.41898 16.4458 7.26806C16.8153 8.11713 17 9.02778 17 10V15.5C17 15.9028 16.8531 16.2535 16.5594 16.5521C16.2656 16.8507 15.9125 17 15.5 17H12V11H15.5V10C15.5 8.46786 14.9668 7.16816 13.9005 6.1009C12.8341 5.03363 11.5355 4.5 10.0046 4.5C8.47376 4.5 7.17361 5.03363 6.10417 6.1009C5.03472 7.16816 4.5 8.46786 4.5 10V11H8V17Z" fill="#FFA41B"/>
</g>
</svg>
