<svg width="20" height="20" viewBox="0 0 20 20" fill="none" xmlns="http://www.w3.org/2000/svg">
<mask id="mask0_18_140" style="mask-type:alpha" maskUnits="userSpaceOnUse" x="0" y="0" width="20" height="20">
<rect width="20" height="20" fill="#D9D9D9"/>
</mask>
<g mask="url(#mask0_18_140)">
<path d="M4.16649 17.5C3.45816 17.5 2.95469 17.184 2.65608 16.5521C2.35747 15.9201 2.43038 15.3333 2.87483 14.7917L7.49983 9.16667V4.16667H6.6665C6.43038 4.16667 6.23247 4.08681 6.07275 3.92708C5.91302 3.76736 5.83316 3.56944 5.83316 3.33333C5.83316 3.09722 5.91302 2.89931 6.07275 2.73958C6.23247 2.57986 6.43038 2.5 6.6665 2.5H13.3332C13.5693 2.5 13.7672 2.57986 13.9269 2.73958C14.0866 2.89931 14.1665 3.09722 14.1665 3.33333C14.1665 3.56944 14.0866 3.76736 13.9269 3.92708C13.7672 4.08681 13.5693 4.16667 13.3332 4.16667H12.4998V9.16667L17.1248 14.7917C17.5693 15.3333 17.6422 15.9201 17.3436 16.5521C17.045 17.184 16.5415 17.5 15.8332 17.5H4.16649Z" fill="#FFA41B"/>
</g>
</svg>
