<svg width="20" height="20" viewBox="0 0 20 20" fill="none" xmlns="http://www.w3.org/2000/svg">
<mask id="mask0_18_146" style="mask-type:alpha" maskUnits="userSpaceOnUse" x="0" y="0" width="20" height="20">
<rect width="20" height="20" fill="#D9D9D9"/>
</mask>
<g mask="url(#mask0_18_146)">
<path d="M4.5 4L6 7H8L6.5 4H8L9.5 7H11.5L10 4H11.5L13 7H15L13.5 4H16.5C16.9167 4 17.2708 4.14931 17.5625 4.44792C17.8542 4.74653 18 5.09722 18 5.5V14.5C18 14.9028 17.8542 15.2535 17.5625 15.5521C17.2708 15.8507 16.9167 16 16.5 16H3.5C3.09722 16 2.74653 15.8507 2.44792 15.5521C2.14931 15.2535 2 14.9028 2 14.5V5.5C2 5.09722 2.14236 4.74653 2.42708 4.44792C2.71181 4.14931 3.06944 4 3.5 4H4.5Z" fill="#FFA41B"/>
</g>
</svg>
