<svg width="192" height="70" viewBox="0 0 192 70" fill="none" xmlns="http://www.w3.org/2000/svg">
<path fill-rule="evenodd" clip-rule="evenodd" d="M49.7416 10.4776C49.0483 8.83559 48.2412 7.38034 47.3203 6.11188C45.0601 2.99861 42.1308 1.74029 38.5324 2.33692C35.3414 2.866 33.1114 4.14262 31.8426 6.16677C30.6416 8.17967 30.2944 10.7137 30.8009 13.769L31.6289 18.1312C31.8431 19.0026 32.0909 20.287 32.3724 21.9843C32.9014 25.1753 32.8993 27.687 32.366 29.5195C31.8215 31.284 30.3271 32.3689 27.8829 32.7742C25.4388 33.1794 23.6742 32.6349 22.5893 31.1405C21.4932 29.5782 20.6749 27.1676 20.1346 23.9087C19.8531 22.2114 19.6732 20.9158 19.5948 20.0219L18.9536 15.524C18.4808 12.6725 17.3173 10.4935 15.4631 8.9872C13.6655 7.40172 11.1712 6.87352 7.98014 7.40261C4.38176 7.99923 2.01533 10.1356 0.880834 13.8117C-0.197023 17.4087 -0.285668 21.9229 0.6149 27.3545C1.66181 33.6686 3.32082 38.6256 5.59193 42.2253C7.91967 45.746 11.1026 48.1133 15.1407 49.3273C19.1676 50.4734 24.3041 50.5286 30.5503 49.4929C29.8478 50.7256 28.6817 51.6863 27.0519 52.3751C25.49 53.0526 23.2041 53.5712 20.1942 53.9307C17.3202 54.2677 14.9377 55.2557 13.0469 56.8946C11.1561 58.5336 10.3964 60.4733 10.7679 62.7138C11.2294 65.4975 12.8005 67.3996 15.4811 68.4201C18.1616 69.4406 21.3351 69.6469 25.0013 69.039C33.1486 67.6882 39.4249 64.5198 43.8303 59.534C46.8846 56.122 49.1613 52.2373 50.6604 47.8798C49.2721 46.4154 48.0477 44.7908 46.9915 43.0085L46.9723 42.9761L46.9538 42.9434C44.528 38.6395 43.2557 33.8877 43.1024 28.7516L43.1016 28.7258L43.1012 28.6999C43.0236 23.4958 44.2345 18.7184 46.7996 14.47C47.6658 13.0354 48.6475 11.7045 49.7416 10.4776ZM51.0656 14.3274C50.6031 14.9462 50.1696 15.5906 49.7652 16.2605C47.5629 19.908 46.4962 24.0372 46.565 28.6482C46.7026 33.2592 47.8382 37.4573 49.9716 41.2424C50.5244 42.1752 51.1292 43.0582 51.786 43.8912C51.9616 43.1079 52.1149 42.3111 52.2461 41.5008C53.4401 34.3966 53.3729 26.8387 52.0445 18.8272C51.7792 17.2271 51.4529 15.7272 51.0656 14.3274Z" fill="#FFA41B"/>
<path d="M165.904 53.1139C160.949 53.1828 156.51 52.1504 152.588 50.017C148.734 47.8835 145.706 44.9587 143.503 41.2423C141.37 37.4572 140.234 33.2591 140.097 28.6481C140.028 24.0371 141.095 19.9079 143.297 16.2604C145.499 12.6129 148.562 9.7224 152.484 7.58896C156.476 5.45551 160.949 4.38879 165.904 4.38879C170.722 4.38879 175.058 5.4211 178.912 7.48573C182.834 9.55035 185.931 12.4408 188.202 16.1571C190.473 19.8735 191.678 24.0371 191.815 28.6481C191.884 33.1215 190.818 37.2163 188.615 40.9326C186.413 44.5801 183.316 47.505 179.324 49.7073C175.402 51.9096 170.928 53.0451 165.904 53.1139ZM166.214 38.0422C168.072 38.0422 169.69 37.3195 171.066 35.8743C172.442 34.4291 173.131 32.743 173.131 30.816C173.131 28.889 172.442 27.2373 171.066 25.8609C169.69 24.4156 168.072 23.693 166.214 23.693C164.356 23.693 162.739 24.4156 161.362 25.8609C159.986 27.2373 159.298 28.889 159.298 30.816C159.298 32.743 159.986 34.4291 161.362 35.8743C162.739 37.3195 164.356 38.0422 166.214 38.0422Z" fill="#FFA41B"/>
<path fill-rule="evenodd" clip-rule="evenodd" d="M93.7037 14.6943C91.5467 11.6739 88.7721 9.27105 85.38 7.48573C81.526 5.4211 77.1903 4.38879 72.3728 4.38879C67.4177 4.38879 62.9444 5.45551 58.9528 7.58896C55.03 9.7224 51.9675 12.6129 49.7652 16.2604C47.5629 19.9079 46.4962 24.0371 46.565 28.6481C46.7027 33.2591 47.8382 37.4572 49.9716 41.2423C52.1739 44.9587 55.202 47.8835 59.056 50.017C62.9788 52.1504 67.4177 53.1828 72.3728 53.1139C77.3967 53.0451 81.8701 51.9096 85.7929 49.7073C88.1146 48.4263 90.1337 46.9009 91.85 45.131C91.389 43.7966 91.0898 42.3542 90.9191 40.8411L90.9183 40.8344L90.9176 40.8277C90.2936 35.0988 90.6989 28.7448 92.054 21.8057C92.5508 19.2619 93.0987 16.8877 93.7037 14.6943ZM96.1804 19.0426C97.4796 21.9936 98.1808 25.1955 98.2839 28.6481C98.3527 33.1215 97.286 37.2163 95.0837 40.9326C94.9123 41.2166 94.7354 41.4961 94.5531 41.7713C94.4768 41.3488 94.4129 40.9092 94.3613 40.4526C93.7839 35.1509 94.1481 29.1566 95.4539 22.4696C95.6862 21.28 95.9284 20.1377 96.1804 19.0426ZM77.5344 35.8743C76.158 37.3195 74.5407 38.0422 72.6825 38.0422C70.8244 38.0422 69.2071 37.3195 67.8306 35.8743C66.4542 34.4291 65.766 32.743 65.766 30.816C65.766 28.889 66.4542 27.2373 67.8306 25.8609C69.2071 24.4156 70.8244 23.693 72.6825 23.693C74.5407 23.693 76.158 24.4156 77.5344 25.8609C78.9108 27.2373 79.599 28.889 79.599 30.816C79.599 32.743 78.9108 34.4291 77.5344 35.8743Z" fill="#FFA41B"/>
<path fill-rule="evenodd" clip-rule="evenodd" d="M125.512 52.2155C126.464 53.8038 128.156 54.8354 130.587 55.3103C134.167 56.0093 136.97 54.9438 138.995 52.1138C140.225 50.3648 141.279 48.1469 142.156 45.4603C141.573 44.6794 141.029 43.862 140.523 43.0084L140.504 42.976L140.486 42.9433C138.06 38.6394 136.787 33.8876 136.634 28.7515L136.633 28.7257L136.633 28.6998C136.555 23.4957 137.766 18.7184 140.331 14.4699C140.507 14.1796 140.687 13.8936 140.871 13.6118C138.039 9.1696 133.529 6.34444 127.343 5.13635C125.249 4.72745 123.184 4.70984 121.147 5.0835C119.179 5.47036 117.663 6.05086 116.6 6.82502C116.457 5.04407 115.863 3.59584 114.819 2.48033C113.788 1.29727 112.327 0.52108 110.435 0.151753C103.613 -1.18046 98.6195 6.25883 95.4539 22.4696C94.148 29.1566 93.7838 35.1509 94.3613 40.4526C94.9519 45.6868 97.1723 48.6798 101.022 49.4316C103.657 49.946 105.68 49.6399 107.092 48.5132C108.517 47.319 109.509 45.8299 110.068 44.0457C110.627 42.2616 111.256 39.5796 111.955 35.9997C112.68 32.2847 113.788 29.4858 115.277 27.6029C116.848 25.6657 118.747 24.9148 120.976 25.35C123.408 25.8249 124.953 27.2486 125.612 29.621C126.27 31.9935 126.211 35.1723 125.432 39.1575C124.826 42.2646 124.466 44.8239 124.354 46.8355C124.241 48.847 124.627 50.6404 125.512 52.2155ZM142.71 17.2941C140.905 20.6827 140.034 24.4674 140.097 28.6481C140.231 33.1546 141.319 37.2666 143.36 40.9843C143.462 40.5198 143.56 40.0453 143.655 39.5606C145.384 30.7089 145.069 23.2867 142.71 17.2941Z" fill="#FFA41B"/>
</svg>
